<svg width="381" height="106" viewBox="0 0 381 106" fill="none" xmlns="http://www.w3.org/2000/svg">
<path d="M107.237 77.7619C106.101 77.7644 104.978 77.5332 103.936 77.0831C102.894 76.6329 101.955 75.9732 101.178 75.145C100.402 74.3168 99.8045 73.3378 99.4225 72.2688C99.0404 71.1997 98.8819 70.0634 98.9576 68.9307C98.8943 67.8387 99.0484 66.7451 99.4104 65.7129C99.7723 64.6806 100.335 63.7302 101.066 62.9168C101.798 62.1034 102.683 61.443 103.671 60.9737C104.659 60.5044 105.73 60.2356 106.823 60.1827C108.185 60.19 109.529 60.5007 110.756 61.0926C111.983 61.6846 113.062 62.5429 113.916 63.6047L117.779 59.4099C116.434 57.8553 114.755 56.6257 112.867 55.8131C110.979 55.0006 108.932 54.6261 106.878 54.7183C105.002 54.707 103.142 55.071 101.409 55.7889C99.6751 56.5067 98.1025 57.5641 96.7834 58.8986C95.4644 60.233 94.4256 61.8177 93.728 63.5596C93.0303 65.3014 92.6876 67.1651 92.7207 69.0412C92.7559 71.9636 93.6844 74.8053 95.3813 77.1848C97.0783 79.5643 99.4623 81.3679 102.214 82.3531C104.965 83.3384 107.953 83.4582 110.774 82.6967C113.596 81.9352 116.118 80.3288 118 78.093L114.219 74.3672C113.355 75.3878 112.288 76.2169 111.086 76.8014C109.883 77.3859 108.573 77.7132 107.237 77.7619Z" fill="white"/>
<path d="M129.976 61.4244V54.7735H123.712V83.1983H129.976V72.1596C129.976 64.9292 133.812 61.3415 139.277 61.3415H139.663V54.7458C137.538 54.6369 135.437 55.2324 133.685 56.44C131.934 57.6476 130.63 59.3998 129.976 61.4244Z" fill="white"/>
<path d="M158.153 75.7748L150.067 54.7185H143.416L155.255 83.226L152.247 90.8703H158.567L172.393 54.7185H165.907L158.153 75.7748Z" fill="white"/>
<path d="M192.29 54.7185C190.442 54.7138 188.623 55.1802 187.006 56.0735C185.388 56.9667 184.025 58.2578 183.045 59.8242V54.7185H176.78V90.843H183.045V78.3415C184.071 79.8411 185.452 81.064 187.065 81.9016C188.678 82.7393 190.473 83.1658 192.29 83.1434C198.803 83.1434 205.012 78.0379 205.012 68.931C205.012 59.824 198.775 54.7185 192.29 54.7185ZM190.855 77.7069C188.671 77.4947 186.644 76.4771 185.17 74.8522C183.695 73.2273 182.878 71.1114 182.878 68.9171C182.878 66.7229 183.695 64.6073 185.17 62.9824C186.644 61.3575 188.671 60.3399 190.855 60.1277C192.996 60.3966 194.966 61.4381 196.394 63.0565C197.822 64.675 198.61 66.7588 198.61 68.9171C198.61 71.0755 197.822 73.1597 196.394 74.7781C194.966 76.3965 192.996 77.438 190.855 77.7069Z" fill="white"/>
<path d="M218.728 47.792H212.491V55.2982H209.014V60.6518H212.491V75.03C212.491 80.9909 215.719 83.0328 220.273 83.0328H224.55V77.5134H222.095C221.632 77.5799 221.16 77.5368 220.717 77.3875C220.275 77.2381 219.873 76.9868 219.546 76.6537C219.218 76.3207 218.974 75.9154 218.832 75.4703C218.689 75.0252 218.654 74.5528 218.728 74.0915V60.7071H224.55V55.3535H218.728V47.792Z" fill="white"/>
<path d="M244.448 54.7183C242.543 54.6778 240.649 55.0189 238.878 55.7208C237.106 56.4228 235.493 57.4719 234.133 58.8063C232.773 60.1407 231.693 61.7335 230.958 63.4912C230.222 65.2489 229.845 67.1358 229.849 69.0412C229.844 70.9296 230.219 72.7997 230.95 74.541C231.68 76.2823 232.753 77.8593 234.104 79.1791C235.454 80.4989 237.056 81.5348 238.814 82.2251C240.571 82.9155 242.449 83.2463 244.337 83.1984C248.114 83.1984 251.736 81.698 254.406 79.0275C257.077 76.357 258.577 72.735 258.577 68.9583C258.577 65.1817 257.077 61.5597 254.406 58.8892C251.736 56.2187 248.114 54.7183 244.337 54.7183H244.448ZM244.448 77.7619C243.318 77.7447 242.204 77.5002 241.171 77.0433C240.138 76.5865 239.208 75.9266 238.435 75.1026C237.663 74.2786 237.064 73.3072 236.675 72.2469C236.285 71.1866 236.113 70.0589 236.169 68.9307C236.105 67.8047 236.272 66.6775 236.659 65.6182C237.046 64.559 237.646 63.5901 238.422 62.771C239.197 61.9518 240.131 61.2996 241.167 60.8545C242.203 60.4094 243.32 60.1809 244.448 60.1828C245.578 60.2036 246.694 60.4512 247.727 60.9111C248.76 61.371 249.69 62.0337 250.462 62.8599C251.234 63.6861 251.832 64.6588 252.221 65.7206C252.61 66.7825 252.782 67.9117 252.727 69.0412C252.787 70.165 252.617 71.2893 252.228 72.3453C251.839 73.4013 251.238 74.3666 250.464 75.1828C249.689 75.9989 248.756 76.6488 247.721 77.0922C246.687 77.5356 245.573 77.7635 244.448 77.7619Z" fill="white"/>
<path d="M318.876 54.7183C316.972 54.6778 315.08 55.0189 313.31 55.7212C311.54 56.4235 309.929 57.4729 308.571 58.8076C307.213 60.1424 306.136 61.7357 305.404 63.4932C304.671 65.2508 304.298 67.1371 304.306 69.0412C304.301 70.9273 304.675 72.7949 305.404 74.5343C306.133 76.2737 307.202 77.8496 308.55 79.169C309.898 80.4884 311.496 81.5247 313.251 82.2167C315.005 82.9087 316.881 83.2426 318.766 83.1984C322.543 83.1984 326.165 81.698 328.835 79.0275C331.506 76.357 333.006 72.735 333.006 68.9584C333.006 65.1817 331.506 61.5597 328.835 58.8892C326.165 56.2187 322.543 54.7183 318.766 54.7183H318.876ZM318.876 77.7619C317.747 77.7448 316.633 77.5002 315.6 77.0433C314.567 76.5865 313.636 75.9266 312.864 75.1026C312.091 74.2786 311.492 73.3072 311.103 72.2469C310.714 71.1866 310.541 70.0589 310.597 68.9307C310.533 67.8047 310.7 66.6775 311.088 65.6182C311.475 64.559 312.075 63.5901 312.85 62.771C313.625 61.9518 314.559 61.2996 315.596 60.8545C316.632 60.4094 317.748 60.181 318.876 60.1828C320.006 60.2073 321.119 60.4573 322.15 60.9185C323.182 61.3797 324.11 62.0426 324.882 62.868C325.653 63.6934 326.252 64.6649 326.642 65.725C327.033 66.7852 327.207 67.9126 327.155 69.0412C327.215 70.165 327.046 71.2893 326.657 72.3453C326.267 73.4013 325.667 74.3666 324.893 75.1828C324.118 75.999 323.184 76.6488 322.15 77.0922C321.115 77.5356 320.001 77.7635 318.876 77.7619Z" fill="white"/>
<path d="M370.592 54.7184C368.775 54.696 366.981 55.1228 365.368 55.9605C363.755 56.7981 362.374 58.021 361.348 59.5206C360.609 58.0179 359.448 56.7631 358.007 55.9103C356.566 55.0574 354.907 54.6432 353.234 54.7184C351.57 54.7325 349.935 55.1706 348.487 55.9915C347.038 56.8123 345.823 57.989 344.955 59.4101V54.7184H338.691V83.1985H344.955V67.2198C344.955 62.9699 347.328 60.4035 350.806 60.4035C354.283 60.4035 356.325 62.7769 356.325 67.0268V83.1985H362.589V67.1646C362.589 62.7767 365.018 60.4035 368.44 60.4035C371.862 60.4035 373.96 62.7217 373.96 67.0544V83.1985H380.224V65.1501C380.169 58.4717 376.553 54.7184 370.592 54.7184Z" fill="white"/>
<path d="M267.518 75.5819C267.462 75.5414 267.394 75.5195 267.325 75.5195C267.256 75.5195 267.188 75.5414 267.132 75.5819L264.372 77.1547C264.317 77.1825 264.272 77.2265 264.242 77.2807C264.212 77.335 264.2 77.3971 264.207 77.4586V80.7424C264.202 80.8075 264.214 80.8727 264.243 80.9311C264.273 80.9894 264.317 81.0387 264.372 81.0736L267.132 82.6465C267.192 82.6739 267.258 82.6882 267.325 82.6882C267.392 82.6882 267.458 82.6739 267.518 82.6465L270.278 81.0736C270.341 81.0452 270.393 80.9982 270.428 80.9388C270.462 80.8795 270.478 80.8109 270.471 80.7424V77.5964C270.476 77.5318 270.459 77.4674 270.424 77.4128C270.39 77.3582 270.338 77.3162 270.278 77.2928L267.518 75.5819Z" fill="white"/>
<path d="M289.899 60.1553C291.264 60.1853 292.604 60.5206 293.822 61.1367C295.04 61.7527 296.104 62.6337 296.937 63.7151L300.883 59.6032C299.569 58.0196 297.912 56.7548 296.038 55.904C294.165 55.0531 292.122 54.6385 290.065 54.6912C288.195 54.6514 286.336 54.9799 284.593 55.6587C282.85 56.3375 281.257 57.353 279.907 58.6472C278.556 59.9413 277.474 61.4886 276.722 63.201C275.97 64.9134 275.561 66.7574 275.521 68.6274C275.482 70.4974 275.811 72.357 276.49 74.0999C277.168 75.8429 278.184 77.435 279.478 78.7855C280.772 80.136 282.319 81.2182 284.032 81.9707C285.744 82.7231 287.588 83.1311 289.458 83.171C291.587 83.2774 293.711 82.8893 295.665 82.037C297.618 81.1848 299.348 79.8914 300.718 78.2587L297.019 74.4779C296.124 75.4924 295.024 76.3069 293.793 76.868C292.561 77.4291 291.225 77.7243 289.872 77.7345C288.745 77.7012 287.637 77.4381 286.615 76.9613C285.594 76.4846 284.68 75.804 283.93 74.9617C283.181 74.1193 282.612 73.1327 282.258 72.0625C281.903 70.9923 281.771 69.861 281.869 68.7379C281.828 67.646 282.005 66.5568 282.387 65.5332C282.769 64.5097 283.35 63.572 284.097 62.7742C284.843 61.9764 285.741 61.3342 286.737 60.8847C287.733 60.4352 288.807 60.1874 289.899 60.1553Z" fill="white"/>
<path d="M12.0828 50.9653V86.8411L43.1844 104.807L74.3689 86.7859V50.9101L43.1844 32.9172L12.0828 50.9653ZM71.1672 85.1578L43.1568 101.302L15.1739 85.1578V52.842L43.1568 36.6704L71.1672 52.842V85.1578Z" fill="white"/>
<path d="M48.2347 69.4553L50.746 62.7769H35.5677L38.1067 69.4553L37.3339 76.9616H43.1293L48.9798 76.9064L48.2347 69.4553Z" fill="white"/>
<path d="M50.8287 77.4308L45.5853 82.481V84.8543L50.6355 89.5181H54.8854L65.5378 70.9179L57.7003 65.0122L50.8287 69.4829V77.4308Z" fill="white"/>
<path d="M28.6409 60.9831H57.6451L54.8302 49.0061H31.3454L28.6409 60.9831Z" fill="white"/>
<path d="M35.5401 69.4829L28.5857 65.0674L20.7206 70.9179L31.4281 89.5457H35.7332L40.7834 84.8543V82.481L35.5401 77.4307V69.4829Z" fill="white"/>
<path d="M83.2727 12.3051C85.6978 21.5222 90.1548 30.0799 96.317 37.3508C91.5358 38.1462 84.5629 36.9973 80.7097 34.1604C78.9041 32.8642 77.3923 31.2016 76.273 29.2813C75.1537 27.361 74.4521 25.2261 74.2141 23.0162L83.2727 12.3051Z" fill="#C22640"/>
<path d="M94.3992 34.9559C90.0918 29.3383 86.7442 23.0463 84.4923 16.3351C85.1551 19.2868 84.8634 17.8905 84.8634 17.8905C86.24 24.8157 88.7449 31.4676 92.2782 37.5807C92.9847 37.6163 93.6927 37.6163 94.3992 37.5807C95.0179 37.5807 95.6365 37.4746 96.2551 37.3774C95.6276 36.5909 95.009 35.7866 94.3992 34.9559Z" fill="#E64A60"/>
<path d="M58.8278 11.6069C59.4613 10.725 60.1871 9.91319 60.993 9.18539C64.528 6.28666 69.592 6.86111 74.0727 7.59463C77.2542 8.11605 80.8864 8.70819 82.7423 11.3683C84.5982 14.0284 83.9707 18.2174 83.1753 21.6022L79.9938 34.7615L74.7355 38.0579C65.8773 34.0143 57.6547 28.7032 50.326 22.2916L58.8278 11.6069Z" fill="#E64A60"/>
<path d="M45.0058 24.4037C45.2621 26.1094 51.3777 29.4853 52.8094 30.59C55.6463 32.6138 58.5097 34.5581 61.4085 36.4936C64.1669 38.3167 67.1008 39.8592 70.1665 41.0979C71.5982 41.69 78.4296 45.8791 79.3399 44.8893C79.6655 44.0678 79.9055 43.2149 80.0558 42.3441C80.3563 41.4603 80.7362 40.497 81.1074 39.6928C81.8408 38.3309 82.4331 36.8977 82.8749 35.4154C83.1931 33.5772 82.4596 33.6479 80.5683 33.0028C78.9235 32.5445 77.3256 31.932 75.796 31.1733C70.4935 28.2481 65.35 25.208 60.2861 21.9204C58.9172 20.9337 57.6041 19.8715 56.3533 18.7388C55.5667 18.1202 53.2955 15.7606 52.4029 15.7959C51.0508 15.7959 49.5218 19.2514 48.753 20.1529C47.9841 21.0543 44.8468 23.6702 45.0058 24.4037Z" fill="#F2F2F2"/>
<path d="M89.5474 35.2916C89.7497 34.6023 90.0861 33.9596 90.5372 33.4004C90.9582 32.7976 91.4998 32.289 92.1279 31.9068C92.7599 31.5168 93.4627 31.2555 94.196 31.1379C94.9371 30.9921 95.6995 30.9921 96.4407 31.1379C97.199 31.3505 97.9079 31.711 98.5264 32.1985C99.1185 32.6757 102.724 36.2902 99.4102 40.5323C98.9712 41.1807 98.394 41.7238 97.7201 42.1227C97.0463 42.5215 96.2924 42.766 95.5128 42.8389C94.7324 42.96 93.9355 42.921 93.1708 42.7241C92.4074 42.5183 91.6884 42.1738 91.0497 41.7078C90.5015 41.1513 90.061 40.498 89.7506 39.7811C88.752 38.0578 89.3441 36.0428 89.5474 35.2916Z" fill="#F2F2F2"/>
<path d="M45.0059 24.4037C45.2621 26.1094 51.3777 29.4853 52.8094 30.59C55.6463 32.6138 58.5098 34.5581 61.4085 36.4935C64.1669 38.3167 67.1008 39.8591 70.1665 41.0979C71.5982 41.69 78.4296 45.8791 79.3399 44.8893C79.6655 44.0678 79.9055 43.2148 80.0558 42.344C80.3563 41.4603 80.7363 40.497 81.1074 39.6928C81.8408 38.3309 82.4331 36.8977 82.875 35.4154C83.1931 33.5772 82.4596 33.6479 80.5684 33.0027C80.5684 33.0027 70.847 38.5438 60.6926 33.4887C50.5382 28.4336 48.753 20.1528 48.753 20.1528C47.9753 21.0189 44.8468 23.6702 45.0059 24.4037Z" fill="#CCCCCC"/>
<path d="M98.5264 32.1543L98.3584 32.0394C99.0412 33.0528 99.3675 34.2645 99.2859 35.4837C99.2043 36.703 98.7194 37.8603 97.9077 38.7737C97.4526 39.4132 96.876 39.9568 96.2108 40.3733C95.5299 40.7506 94.7828 40.9936 94.0102 41.0891C93.2297 41.2057 92.4338 41.1666 91.6684 40.9742C91.0954 40.8134 90.5457 40.5788 90.0333 40.2761C90.2476 40.8158 90.594 41.2928 91.0408 41.6636C91.6795 42.1296 92.3985 42.4742 93.1619 42.6799C93.9266 42.8769 94.7235 42.9159 95.5039 42.7948C96.2835 42.722 97.0373 42.4773 97.7112 42.0785C98.3851 41.6797 98.9622 41.1366 99.4013 40.4882C102.724 36.2462 99.1185 32.6316 98.5264 32.1543Z" fill="#CCCCCC"/>
</svg>
