<svg width="48" height="24" viewBox="0 0 48 24" fill="none" xmlns="http://www.w3.org/2000/svg">
<path d="M10 17.9926L15.1 6.00757H17.514L22.614 17.9926H19.877L18.789 15.3236H13.757L12.669 17.9926H10ZM14.692 13.0116H17.854L16.273 9.15257L14.692 13.0116Z" fill="white" fill-opacity="0.8"/>
<path d="M25.6407 17.9926V6.09257H30.5027C33.3417 6.09257 35.0587 7.77557 35.0587 10.2066V10.2406C35.0587 12.9946 32.9167 14.4226 30.2477 14.4226H28.2587V17.9926H25.6407ZM28.2587 12.0936H30.3327C31.6417 12.0936 32.4067 11.3116 32.4067 10.2916V10.2576C32.4067 9.08457 31.5907 8.45557 30.2817 8.45557H28.2587V12.0936Z" fill="white" fill-opacity="0.8"/>
<path d="M38.1861 17.9926V6.09257H43.0481C45.8871 6.09257 47.6041 7.77557 47.6041 10.2066V10.2406C47.6041 12.9946 45.4621 14.4226 42.7931 14.4226H40.8041V17.9926H38.1861ZM40.8041 12.0936H42.8781C44.1871 12.0936 44.9521 11.3116 44.9521 10.2916V10.2576C44.9521 9.08457 44.1361 8.45557 42.8271 8.45557H40.8041V12.0936Z" fill="white" fill-opacity="0.8"/>
</svg>
