
<svg width="137" height="24" viewBox="0 0 137 24" fill="none" xmlns="http://www.w3.org/2000/svg">
<path d="M10 6.08723H14.6052C18.3106 6.08723 20.8744 8.63653 20.8744 11.9612V12C20.8744 15.3247 18.3106 17.9127 14.6052 17.9127H10V6.08723ZM14.6052 15.567C16.7336 15.567 18.1655 14.1324 18.1655 12.0388V12.0097C18.1655 9.916 16.7336 8.44267 14.6052 8.44267H12.6025V15.567H14.6052Z" fill="white" fill-opacity="0.8"/>
<path d="M24.0767 6.08723H32.9775V8.40389H26.6599V10.7981H32.2228V13.1147H26.6599V15.5961H33.0645V17.9127H24.0767V6.08723Z" fill="white" fill-opacity="0.8"/>
<path d="M36.441 6.08723H45.4288V8.45234H39.0435V10.9725H44.6742V13.3376H39.0435V17.9127H36.4507V6.08723H36.441Z" fill="white" fill-opacity="0.8"/>
<path d="M48.4376 6.08723H51.0305V17.9127H48.4376V6.08723Z" fill="white" fill-opacity="0.8"/>
<path d="M59.8151 6.08723H62.6014L65.0491 14.0937L67.7 6.05816H69.9252L72.5761 14.0937L75.0238 6.08723H77.7424L73.708 18H71.4538L68.7932 10.2649L66.1327 18H63.8785L59.8538 6.08723H59.8151Z" fill="white" fill-opacity="0.8"/>
<path d="M85.8595 6L90.9193 17.9127H88.2007L87.1172 15.2569H82.125L81.0414 17.9127H78.3906L83.4505 6H85.8595ZM86.1981 12.9596L84.6308 9.12116L83.0635 12.9596H86.1981Z" fill="white" fill-opacity="0.8"/>
<path d="M96.1243 6.08723V15.5476H102.007V17.9127H93.5218V6.08723H96.1243Z" fill="white" fill-opacity="0.8"/>
<path d="M107.279 6.08723V15.5476H113.161V17.9127H104.677V6.08723H107.279Z" fill="white" fill-opacity="0.8"/>
<path d="M115.841 6.08723H124.742V8.40389H118.425V10.7981H123.988V13.1147H118.425V15.5961H124.829V17.9127H115.841V6.08723Z" fill="white" fill-opacity="0.8"/>
<path d="M127.219 8.49112V6.09694H137V8.49112H133.411V17.9127H130.818V8.49112H127.219Z" fill="white" fill-opacity="0.8"/>
</svg>
