
<svg width="115" height="24" viewBox="0 0 115 24" fill="none" xmlns="http://www.w3.org/2000/svg">
<path d="M34.7296 12C34.7296 8.7005 37.298 6 40.9883 6C43.2517 6 44.6097 6.73217 45.7217 7.78764L44.0389 9.66085C43.1139 8.85261 42.1692 8.34865 40.9686 8.34865C38.9414 8.34865 37.485 9.97462 37.485 11.9619V12C37.485 13.9873 38.9119 15.6418 40.9686 15.6418C42.3365 15.6418 43.1828 15.1093 44.1275 14.2821L45.8102 15.9271C44.5801 17.2013 43.2024 18 40.8899 18C37.3571 18 34.7296 15.3661 34.7296 12.038V12Z" fill="white" fill-opacity="0.8"/>
<path d="M19.0534 6.19019H10V17.7908H19.142V15.5182H12.6275V13.084H18.2859V10.8114H12.6275V8.46278H19.0534V6.19019Z" fill="white" fill-opacity="0.8"/>
<path d="M21.7498 6.19019L25.7648 11.8954H25.7549L21.5726 17.7908H24.574L27.2802 13.8161L29.9766 17.7908H33.0665L28.8842 11.8574L32.8993 6.19019H29.8978L27.3393 9.95562L24.8397 6.19019H21.7498Z" fill="white" fill-opacity="0.8"/>
<path d="M51.321 6.19019H48.6837V17.7908H51.321V13.1316H56.1921V17.7908H58.8295V6.19019H56.1921V10.7829H51.321V6.19019Z" fill="white" fill-opacity="0.8"/>
<path fill-rule="evenodd" clip-rule="evenodd" d="M69.0638 6.1141L74.2104 17.8003H71.4452L70.343 15.1949H65.2652L64.1631 17.8003H61.4667L66.6134 6.1141H69.0638ZM69.4082 12.9413L67.814 9.1759L66.2198 12.9413H69.4082Z" fill="white" fill-opacity="0.8"/>
<path d="M79.2981 6.19019H76.8576V17.7908H79.4653V10.4216L85.2812 17.7908H87.5248V6.19019H84.9171V13.3312L79.2981 6.19019Z" fill="white" fill-opacity="0.8"/>
<path d="M90.8215 12C90.8215 8.7005 93.4784 6 97.1097 6C99.2746 6 100.574 6.56103 101.823 7.58797L100.16 9.52775C99.2353 8.78607 98.4087 8.34865 97.0211 8.34865C95.1022 8.34865 93.5769 9.99364 93.5769 11.9619V12C93.5769 14.1205 95.0825 15.6799 97.2081 15.6799C98.1725 15.6799 99.0286 15.4517 99.6978 14.9858V13.3312H97.0408V11.1252H102.256V16.1648C101.026 17.1727 99.3238 18 97.1294 18C93.3899 18 90.8215 15.4612 90.8215 12.038V12Z" fill="white" fill-opacity="0.8"/>
<path d="M114.911 6.19019H105.858V17.7908H115V15.5182H108.485V13.084H114.144V10.8114H108.485V8.46278H114.911V6.19019Z" fill="white" fill-opacity="0.8"/>
</svg>
