
<svg width="118" height="24" viewBox="0 0 118 24" fill="none" xmlns="http://www.w3.org/2000/svg">
<path d="M14.811 18.0349L10 6.04995H12.89L16.001 14.4309L19.112 6.04995H21.934L17.123 18.0349H14.811Z" fill="white" fill-opacity="0.8"/>
<path d="M25.079 17.9499V6.04995H27.697V17.9499H25.079Z" fill="white" fill-opacity="0.8"/>
<path d="M36.0939 18.1199C34.2919 18.1199 32.4729 17.4909 31.0449 16.2159L32.5919 14.3629C33.6629 15.2469 34.7849 15.8079 36.1449 15.8079C37.2159 15.8079 37.8619 15.3829 37.8619 14.6859V14.6519C37.8619 13.9889 37.4539 13.6489 35.4649 13.1389C33.0679 12.5269 31.5209 11.8639 31.5209 9.50095V9.46695C31.5209 7.30795 33.2549 5.87995 35.6859 5.87995C37.4199 5.87995 38.8989 6.42395 40.1059 7.39295L38.7459 9.36495C37.6919 8.63395 36.6549 8.19195 35.6519 8.19195C34.6489 8.19195 34.1219 8.65095 34.1219 9.22895V9.26295C34.1219 10.0449 34.6319 10.2999 36.6889 10.8269C39.1029 11.4559 40.4629 12.3229 40.4629 14.3969V14.4309C40.4629 16.7939 38.6609 18.1199 36.0939 18.1199Z" fill="white" fill-opacity="0.8"/>
<path d="M42.6559 17.9499L47.7559 5.96495H50.1699L55.2699 17.9499H52.5329L51.4449 15.2809H46.4129L45.3249 17.9499H42.6559ZM47.3479 12.9689H50.5099L48.9289 9.10995L47.3479 12.9689Z" fill="white" fill-opacity="0.8"/>
<path d="M70.1593 18.1539C66.6573 18.1539 64.0563 15.4509 64.0563 12.0339V11.9999C64.0563 8.61695 66.6063 5.84595 70.2613 5.84595C72.5053 5.84595 73.8483 6.59395 74.9533 7.68195L73.2873 9.60295C72.3693 8.76995 71.4343 8.25995 70.2443 8.25995C68.2383 8.25995 66.7933 9.92595 66.7933 11.9659V11.9999C66.7933 14.0399 68.2043 15.7399 70.2443 15.7399C71.6043 15.7399 72.4373 15.1959 73.3723 14.3459L75.0383 16.0289C73.8143 17.3379 72.4543 18.1539 70.1593 18.1539Z" fill="white" fill-opacity="0.8"/>
<path d="M77.3041 17.9499L82.4041 5.96495H84.8181L89.9181 17.9499H87.1811L86.0931 15.2809H81.0611L79.9731 17.9499H77.3041ZM81.9961 12.9689H85.1581L83.5771 9.10995L81.9961 12.9689Z" fill="white" fill-opacity="0.8"/>
<path d="M92.9447 17.9499V6.04995H98.3847C99.8977 6.04995 101.071 6.47495 101.853 7.25695C102.516 7.91995 102.873 8.85495 102.873 9.97695V10.0109C102.873 11.9319 101.836 13.1389 100.323 13.6999L103.23 17.9499H100.17L97.6197 14.1419H95.5627V17.9499H92.9447ZM95.5627 11.8299H98.2147C99.4897 11.8299 100.221 11.1499 100.221 10.1469V10.1129C100.221 8.99095 99.4387 8.41295 98.1637 8.41295H95.5627V11.8299Z" fill="white" fill-opacity="0.8"/>
<path d="M106.42 17.9499V6.04995H111.061C114.801 6.04995 117.385 8.61695 117.385 11.9659V11.9999C117.385 15.3489 114.801 17.9499 111.061 17.9499H106.42ZM109.038 15.5869H111.061C113.203 15.5869 114.648 14.1419 114.648 12.0339V11.9999C114.648 9.89195 113.203 8.41295 111.061 8.41295H109.038V15.5869Z" fill="white" fill-opacity="0.8"/>
</svg>
