<svg width="16" height="16" viewBox="0 0 16 16" fill="none" xmlns="http://www.w3.org/2000/svg">
<path fill-rule="evenodd" clip-rule="evenodd" d="M0.629951 0.704164C0.597092 0.828467 0.57959 0.967792 0.57959 1.121V14.8786C0.57959 15.0322 0.597128 15.1717 0.630051 15.2961L8.16793 7.99966L0.629951 0.704164ZM1.35093 15.9901C1.60136 16.0262 1.89694 15.9645 2.2128 15.7912L11.1435 10.8795L8.88688 8.69548L1.35093 15.9901ZM12.0609 10.3757L14.7469 8.8987C15.6448 8.40415 15.6448 7.59609 14.7469 7.10217L12.0597 5.62433L9.60579 7.9996L12.0609 10.3757ZM11.1428 5.12009L2.2128 0.209061C1.89682 0.0352812 1.60115 -0.0263263 1.35066 0.0100307L8.88683 7.30378L11.1428 5.12009Z" fill="#F4F4F4"/>
</svg>
